<svg width="19" height="18" viewBox="0 0 19 18" fill="none" xmlns="http://www.w3.org/2000/svg">
<path d="M10.3422 5.7208C8.51451 4.83297 6.37117 5.35806 5.10182 6.8539L7.01868 8.76463C7.23544 8.98055 7.23544 9.32877 7.01868 9.54468C6.91023 9.64832 6.76668 9.70376 6.62366 9.70376C6.48063 9.70376 6.34384 9.64832 6.23557 9.54468L4.51916 7.80737L0.0764171 16.886C-0.0232932 17.0933 -0.0276285 17.3438 0.0764171 17.5642C0.267167 17.9483 0.735372 18.1083 1.11687 17.9227L5.75037 15.6686L4.04749 13.9669C3.82632 13.7553 3.82632 13.401 4.04749 13.1896C4.26425 12.9737 4.61523 12.9737 4.82783 13.1896L6.804 15.158L10.3415 13.4345C11.1739 13.0328 11.8849 12.3546 12.3229 11.4609C13.37 9.33084 12.4821 6.76408 10.3422 5.7208ZM13.533 4.5186C11.0634 5.7208 13.8625 1.44678 12.4544 0.310913C10.7116 1.7532 10.6332 4.02459 12.1812 5.55843L12.4587 5.8348C14.0289 7.37554 16.3145 7.29954 17.7572 5.56189C11.5 7.5 14.9168 3.84496 13.533 4.5186Z" fill="#F89A2B"/>
<path d="M18.9124 6.26628C17.7198 4.01506 14.5716 4.76611 13.8714 5.11264C14.2013 4.94935 14.3844 1.49401 13.213 0.323184C12.9477 0.0580933 12.5296 0.161383 12.2812 0.44225C11.181 1.68595 10.005 3.81683 12.3929 6.44441C14.9214 9.22665 18.5355 7.62373 18.959 6.63614C19.0104 6.5163 18.9735 6.3815 18.9124 6.26628Z" fill="#77C03D"/>
</svg>
